<?xml version="1.0" encoding="UTF-8" standalone="no"?>
<!-- Created with Inkscape (http://www.inkscape.org/) -->

<svg
   width="512"
   height="512"
   viewBox="0 0 135.46667 135.46667"
   version="1.1"
   id="svg1"
   sodipodi:docname="favicon.svg"
   inkscape:version="1.4.2 (2aeb623e1d, 2025-05-12)"
   xmlns:inkscape="http://www.inkscape.org/namespaces/inkscape"
   xmlns:sodipodi="http://sodipodi.sourceforge.net/DTD/sodipodi-0.dtd"
   xmlns="http://www.w3.org/2000/svg"
   xmlns:svg="http://www.w3.org/2000/svg">
  <sodipodi:namedview
     id="namedview1"
     pagecolor="#ffffff"
     bordercolor="#000000"
     borderopacity="0.25"
     inkscape:showpageshadow="2"
     inkscape:pageopacity="0.0"
     inkscape:pagecheckerboard="0"
     inkscape:deskcolor="#d1d1d1"
     inkscape:zoom="1.4633046"
     inkscape:cx="267.54511"
     inkscape:cy="262.76142"
     inkscape:window-width="1854"
     inkscape:window-height="1011"
     inkscape:window-x="0"
     inkscape:window-y="0"
     inkscape:window-maximized="1"
     inkscape:current-layer="svg1" />
  <defs
     id="defs1" />
  <g
     id="layer1"
     transform="matrix(0.24880426,0,0,0.24602031,-1.3875985,-0.61418237)">
    <path
       id="path5"
       style="fill:#a2af9b;fill-opacity:1;stroke-width:5.57919;stroke-linecap:round;stroke-linejoin:round;stroke-opacity:0.668548"
       d="m 399.74064,229.34156 c -54.17581,0 -82.0415,6.33351 -95.59989,18.92897 -13.55843,12.59548 -12.80947,31.45279 -12.80947,81.77816 0,63.95067 48.53653,115.79294 108.40936,115.79292 59.87284,0 108.40935,-51.84226 108.40936,-115.79292 1e-5,-50.32277 -0.82558,-69.17987 -14.40782,-81.77596 -13.58224,-12.59609 -39.92114,-18.93117 -94.00154,-18.93117 z m 0,6.88603 c 51.1476,3e-5 92.6106,10.88169 92.60961,24.30469 -1.6e-4,13.4228 -41.46282,24.30413 -92.60961,24.30415 -51.14679,-2e-5 -92.60945,-10.88135 -92.60962,-24.30415 -9.9e-4,-13.42302 41.46201,-24.30466 92.60962,-24.30469 z" />
    <path
       style="baseline-shift:baseline;display:inline;overflow:visible;vector-effect:none;fill:#a2af9b;fill-opacity:1;stroke:none;stroke-width:0.854657;stroke-linecap:round;stroke-linejoin:round;enable-background:accumulate;stop-color:#000000"
       d="m 155.27982,228.9071 c -27.62304,0 -55.24646,10.51216 -76.269803,31.53551 -42.046689,42.04668 -42.046689,110.49292 0,152.5396 42.046693,42.04669 110.492923,42.04669 152.539603,0 19.29573,-19.29572 69.86656,-69.87489 69.86656,-69.87489 a 9.0460257,9.0460257 0 0 0 -0.7545,-13.45918 c 8.5e-4,8.6e-4 0.006,0.004 0.007,0.005 0.2061,0.16721 0.2299,0.19403 0.2387,0.20197 0.0176,0.0159 -0.10305,-0.0938 -0.26708,-0.25038 -0.32806,-0.31313 -0.87684,-0.84754 -1.58245,-1.54073 -1.41122,-1.38634 -3.46801,-3.42639 -5.98928,-5.93919 -5.0427,-5.02573 -11.95556,-11.94974 -19.46031,-19.47863 -15.00948,-15.05775 -32.38994,-32.53517 -42.05848,-42.20371 -21.02333,-21.02333 -48.64676,-31.5355 -76.2698,-31.5355 z m 0,17.97785 c 22.95547,0 45.91157,8.78237 63.47833,26.34913 9.62651,9.62653 27.0179,27.11482 42.03845,42.18369 7.51027,7.53442 14.42745,14.4645 19.5002,19.52022 0.77591,0.7733 1.17603,1.16339 1.86122,1.84454 -7.85867,7.85958 -45.89125,45.89793 -63.39987,63.40654 -35.13352,35.13352 -91.82314,35.13352 -126.95666,0 -35.133519,-35.13353 -35.133519,-91.82146 0,-126.95499 17.56676,-17.56676 40.52286,-26.34913 63.47833,-26.34913 z m 138.2241,80.91031 c -8.5e-4,2.2e-4 4.78339,0.45222 5.42674,0.76118 0.64336,0.30897 0.89688,0.49117 1.10338,0.62931 0.40109,0.26832 0.51476,0.37136 0.61596,0.45403 a 9.0460257,9.0460257 0 0 0 -7.14608,-1.84452 z"
       id="path2" />
    <rect
       style="fill:#a2af9b;fill-opacity:1;stroke:none;stroke-width:11.6235;stroke-linecap:square;stroke-linejoin:miter;stroke-dasharray:none;stroke-opacity:1"
       id="rect10"
       width="17.993504"
       height="126.47208"
       x="437.69205"
       y="-36.943027"
       transform="rotate(45)" />
    <path
       id="rect11"
       style="fill:#a2af9b;fill-opacity:1;stroke-width:7.05592;stroke-linecap:square"
       d="m 415.76513,164.41566 14.31259,3.83506 -27.90555,95.51787 -7.55979,10e-4 -7.25173,0.0196 z" />
    <path
       id="rect12"
       style="fill:#a2af9b;fill-opacity:1;stroke-width:6.08967;stroke-linecap:square"
       d="m 470.39786,109.78339 c 0,0 2.68619,0.8784 3.97586,1.45001 1.00954,0.44746 2.10695,0.80872 2.93121,1.54357 0.85973,0.76647 1.42933,1.82534 1.94895,2.85326 0.73783,1.45957 1.62153,4.6307 1.62153,4.6307 l -54.6329,54.63289 -10.47755,-10.47753 z" />
    <path
       style="fill:#a2af9b;fill-opacity:1;stroke:none;stroke-width:7.05592;stroke-linecap:square;stroke-linejoin:miter;stroke-dasharray:none;stroke-opacity:1"
       d="m 377.3942,262.29088 c 49.7444,-0.3528 49.7444,-0.3528 49.7444,-0.3528 z"
       id="path12" />
  </g>
</svg>
