<?xml version="1.0" encoding="UTF-8" standalone="no"?>
<!-- Created with Inkscape (http://www.inkscape.org/) -->

<svg
   width="4400"
   height="1587.4016"
   viewBox="0 0 1164.1667 420.00001"
   version="1.1"
   id="svg1"
   inkscape:version="1.4.2 (2aeb623e1d, 2025-05-12)"
   sodipodi:docname="whiletrue-mate-original.svg"
   inkscape:export-filename="../b8daadfe/whiletrue-mate-logo-texto.png"
   inkscape:export-xdpi="96"
   inkscape:export-ydpi="96"
   xmlns:inkscape="http://www.inkscape.org/namespaces/inkscape"
   xmlns:sodipodi="http://sodipodi.sourceforge.net/DTD/sodipodi-0.dtd"
   xmlns="http://www.w3.org/2000/svg"
   xmlns:svg="http://www.w3.org/2000/svg">
  <sodipodi:namedview
     id="namedview1"
     pagecolor="#ffffff"
     bordercolor="#000000"
     borderopacity="0.25"
     inkscape:showpageshadow="false"
     inkscape:pageopacity="0.0"
     inkscape:pagecheckerboard="0"
     inkscape:deskcolor="#d1d1d1"
     inkscape:document-units="mm"
     showborder="false"
     inkscape:zoom="0.18600187"
     inkscape:cx="2252.6655"
     inkscape:cy="1083.3224"
     inkscape:window-width="1854"
     inkscape:window-height="1011"
     inkscape:window-x="0"
     inkscape:window-y="0"
     inkscape:window-maximized="1"
     inkscape:current-layer="layer1"
     showgrid="true">
    <inkscape:grid
       id="grid1"
       units="mm"
       originx="0"
       originy="0"
       spacingx="1"
       spacingy="1"
       empcolor="#0099e5"
       empopacity="0.30196078"
       color="#0099e5"
       opacity="0.14901961"
       empspacing="5"
       enabled="true"
       visible="true" />
  </sodipodi:namedview>
  <defs
     id="defs1">
    <rect
       x="412"
       y="92"
       width="572"
       height="244"
       id="rect2" />
    <rect
       x="324"
       y="52"
       width="1000"
       height="332"
       id="rect1" />
  </defs>
  <g
     inkscape:label="Layer 1"
     inkscape:groupmode="layer"
     id="layer1">
    <g
       id="g1"
       transform="translate(13.758336)">
      <path
         id="path5"
         style="fill:#000000;fill-opacity:1;stroke-width:5.57919;stroke-linecap:round;stroke-linejoin:round;stroke-opacity:0.668548"
         d="m 418.92815,161.52905 c -54.17581,0 -82.0415,6.33351 -95.59989,18.92898 -13.55843,12.59547 -12.80947,31.45278 -12.80947,81.77816 0,63.95066 48.53653,115.79294 108.40936,115.79292 59.87284,0 108.40935,-51.84226 108.40936,-115.79292 1e-5,-50.32278 -0.82558,-69.17988 -14.40782,-81.77597 -13.58224,-12.59609 -39.92114,-18.93117 -94.00154,-18.93117 z m 0,6.88604 c 51.1476,2e-5 92.6106,10.88168 92.60961,24.30469 -1.6e-4,13.4228 -41.46282,24.30412 -92.60961,24.30415 -51.14679,-3e-5 -92.60945,-10.88135 -92.60962,-24.30415 -9.9e-4,-13.42302 41.46201,-24.30467 92.60962,-24.30469 z"
         sodipodi:nodetypes="cssscscscscs" />
      <path
         style="baseline-shift:baseline;display:inline;overflow:visible;vector-effect:none;fill:#000000;fill-opacity:1;stroke:none;stroke-width:0.854657;stroke-linecap:round;stroke-linejoin:round;enable-background:accumulate;stop-color:#000000"
         d="m 174.46733,161.09459 c -27.62304,0 -55.24646,10.51217 -76.269803,31.53551 -42.046689,42.04669 -42.046689,110.49293 0,152.53961 42.046693,42.04669 110.492923,42.04669 152.539603,0 19.29573,-19.29572 69.86656,-69.87489 69.86656,-69.87489 a 9.0460257,9.0460257 0 0 0 -0.7545,-13.45919 c 8.5e-4,8.6e-4 0.006,0.004 0.007,0.005 0.2061,0.16722 0.2299,0.19404 0.2387,0.20198 0.0176,0.0159 -0.10305,-0.0938 -0.26708,-0.25039 -0.32806,-0.31312 -0.87684,-0.84754 -1.58245,-1.54072 -1.41122,-1.38635 -3.46801,-3.42639 -5.98928,-5.93919 -5.0427,-5.02574 -11.95556,-11.94975 -19.46031,-19.47863 -15.00948,-15.05775 -32.38994,-32.53518 -42.05848,-42.20371 -21.02333,-21.02334 -48.64676,-31.53551 -76.2698,-31.53551 z m 0,17.97785 c 22.95547,0 45.91157,8.78238 63.47833,26.34914 9.62651,9.62652 27.0179,27.11482 42.03845,42.18368 7.51027,7.53442 14.42745,14.46451 19.5002,19.52023 0.77591,0.7733 1.17603,1.16339 1.86122,1.84453 -7.85867,7.85958 -45.89125,45.89793 -63.39987,63.40655 -35.13352,35.13352 -91.82314,35.13352 -126.95666,0 -35.133519,-35.13353 -35.133519,-91.82147 0,-126.95499 17.56676,-17.56676 40.52286,-26.34914 63.47833,-26.34914 z m 138.2241,80.91032 c -8.5e-4,2.2e-4 4.78339,0.45222 5.42674,0.76118 0.64336,0.30897 0.89688,0.49117 1.10338,0.62931 0.40109,0.26832 0.51476,0.37136 0.61596,0.45403 a 9.0460257,9.0460257 0 0 0 -7.14608,-1.84452 z"
         id="path2" />
      <rect
         style="fill:#000000;fill-opacity:1;stroke:none;stroke-width:11.6235;stroke-linecap:square;stroke-linejoin:miter;stroke-dasharray:none;stroke-opacity:1"
         id="rect10"
         width="17.993504"
         height="126.47208"
         x="403.30899"
         y="-98.461327"
         transform="rotate(45)" />
      <path
         id="rect11"
         style="fill:#000000;stroke-width:7.05592;stroke-linecap:square"
         d="m 434.95264,96.603159 14.31259,3.835051 -27.90555,95.51788 -7.55979,0.001 -7.25173,0.0196 z"
         sodipodi:nodetypes="cccccc" />
      <path
         id="rect12"
         style="fill:#000000;stroke-width:6.08967;stroke-linecap:square"
         d="m 489.58537,41.97088 c 0,0 2.68619,0.878402 3.97586,1.450017 1.00954,0.447458 2.10695,0.80872 2.93121,1.543567 0.85973,0.766475 1.42933,1.825341 1.94895,2.853257 0.73783,1.459573 1.62153,4.630702 1.62153,4.630702 l -54.6329,54.632897 -10.47755,-10.47754 z"
         sodipodi:nodetypes="caaacccc" />
      <path
         style="fill:#000000;fill-opacity:1;stroke:none;stroke-width:7.05592;stroke-linecap:square;stroke-linejoin:miter;stroke-dasharray:none;stroke-opacity:1"
         d="m 396.58171,194.47838 c 49.7444,-0.3528 49.7444,-0.3528 49.7444,-0.3528 z"
         id="path12" />
    </g>
    <text
       xml:space="preserve"
       transform="scale(0.26458333)"
       id="text1"
       style="text-align:start;writing-mode:lr-tb;direction:ltr;white-space:pre;shape-inside:url(#rect1);display:inline;opacity:0.563786;fill:#100080;stroke-width:34.5222;stroke-linecap:square" />
    <text
       xml:space="preserve"
       transform="scale(0.26458333)"
       id="text2"
       style="font-size:66.6667px;text-align:start;writing-mode:lr-tb;direction:ltr;white-space:pre;shape-inside:url(#rect2);display:inline;opacity:0.563786;fill:#100080;stroke-width:34.5222;stroke-linecap:square" />
    <text
       xml:space="preserve"
       style="font-size:70px;text-align:start;writing-mode:lr-tb;direction:ltr;text-anchor:start;opacity:1;fill:#000000;fill-opacity:1;stroke:none;stroke-width:9.134;stroke-linecap:square"
       x="634.08905"
       y="188.41553"
       id="text3"><tspan
         sodipodi:role="line"
         id="tspan3"
         style="font-style:normal;font-variant:normal;font-weight:normal;font-stretch:normal;font-size:70px;font-family:Monospace;-inkscape-font-specification:Monospace;fill:#000000;fill-opacity:1;stroke:none;stroke-width:9.134"
         x="634.08905"
         y="188.41553">while True:</tspan><tspan
         sodipodi:role="line"
         style="font-style:normal;font-variant:normal;font-weight:normal;font-stretch:normal;font-size:70px;font-family:Monospace;-inkscape-font-specification:Monospace;fill:#000000;fill-opacity:1;stroke:none;stroke-width:9.134"
         x="634.08905"
         y="275.91553"
         id="tspan4">    mate()</tspan></text>
  </g>
</svg>
